<svg xmlns="http://www.w3.org/2000/svg" viewBox="0 0 357.16 99.96"><defs><style>.cls-1{font-size:44px;font-family:PRIMETIME-Regular, PRIMETIME;}.cls-1,.cls-6{fill:#fff;}.cls-2{letter-spacing:-0.04em;}.cls-3{letter-spacing:-0.01em;}.cls-4{letter-spacing:-0.12em;}.cls-5{letter-spacing:-0.03em;}</style></defs><g id="Layer_2" data-name="Layer 2"><g id="Layer_1-2" data-name="Layer 1"><text class="cls-1" transform="translate(0 62.96)">J<tspan class="cls-2" x="28.51" y="0">o</tspan><tspan class="cls-3" x="61.95" y="0">r</tspan><tspan class="cls-4" x="91.17" y="0">d</tspan><tspan class="cls-5" x="117.88" y="0">a</tspan><tspan x="147.84" y="0">n</tspan></text><text class="cls-1" transform="translate(277 64.96)">US</text><path class="cls-6" d="M159.3,100a3.58,3.58,0,0,1,5.26,0l2.87-3.58a45.8,45.8,0,0,1,5.26-4.31h2.16l6.45-5.26h1.92l6.69-5L205,73.42l11.48,4.06s5.74,2.63,9.33,2.39c0,0,8.85,5.27,9.81,6.7l6.21,4.07,1.68.47,5,5L250.9,100,255,95.9l7.17-6s.48-1.91-4.78,0l-5.26.24s-.48.72,2.63-3.59L250.66,89,247.08,88,249,86.57,230.81,73.42H228.9l-11-7.18.72-1.67-3.35-3.83s1.43-9.09,1.19-13.15l-2.63-3.35s-1.19-1.68.72-8.61l1.91-10.05V24.15a4.81,4.81,0,0,0,1.92-4.07,59.82,59.82,0,0,1,.47-6.46l-.23-2.39s8.13-.48,6-7.65c0,0-3.87-8.25-11.26.3,0,0-.45.42,1.46,7.35l1.67,1.68-1.67,4.54-1.68,4.78-2.39,9.33-1.91,2.15-1.67-1.19s-5.75-6.7-10,0c0,0-1,6.22,2.87,6.22l-2.15,2.39-2.87,1.67L191.59,50l-5.74,8.61V60L183,62.65s-4.55,3.83-6.22,2.39l3.35,1.2h3.35l-1.2,2.15,5.26-1-.24-3.83s1.2-6,2.4-4.78c0,0,6-3.83,6.21-6.46L198.05,50l2.87,6.93v2.63s-2.63-.47-2.4,5.27l-1.67.23s-9.33,8.85-9.33,10l-1.67.48-1.44,1S171,84.18,168.87,88l-1.44.95-.72,1.2-1.43.48-.48-2.16-1.19,2.87L156.43,94S154,100,159.3,100Z"/><text class="cls-1" transform="translate(231 64.96)">R</text></g></g></svg>